/* XPM */
static char *result[] = {
/* columns rows colors chars-per-pixel */
"62 62 13 1 ",
"  c #3E1537",
". c #3A2032",
"X c #2A2A47",
"o c #5C2553",
"O c #1F5347",
"+ c #E42D38",
"@ c #BA285C",
"# c #902A66",
"$ c #FF737A",
"% c #1A9556",
"& c #1DAA45",
"* c #89DD47",
"= c #72D73B",
/* pixels */
"==============================================================",
"==============================================================",
"==============================================================",
"==============================================================",
"==============================================================",
"==============================================================",
"==============================================================",
"==============================================================",
"==============================================================",
"==============================================================",
"==============================================================",
"==============================================================",
"==============================================================",
"==============================================================",
"==============================================================",
"==============================================================",
"==============================================================",
"==============================================================",
"==============================================================",
"==============================================================",
"==============================================================",
"==============================================================",
"==========================OOOO================================",
"==========================O***OOO=============================",
"==========================O&&&*%%O=..=========================",
"===========================O%%%%%%..==========================",
"===========================oOO%OOO.@ =========================",
"==========================o+$@XOX.#@@ ========================",
"==========================o+$@@XX.#@+@ =======================",
"==========================o+$+@####@+@ =======================",
"==========================o+$$@@###@+@ =======================",
"==========================o++$$@@@@+$# =======================",
"==========================o+++$$$$+++# =======================",
"==========================o+++++++++@# =======================",
"==========================o++++++++@## =======================",
"=========================== ++++++@## ========================",
"============================ @@@@### =========================",
"=============================       ==========================",
"==============================================================",
"==============================================================",
"==============================================================",
"==============================================================",
"==============================================================",
"==============================================================",
"==============================================================",
"==============================================================",
"==============================================================",
"==============================================================",
"==============================================================",
"==============================================================",
"==============================================================",
"==============================================================",
"==============================================================",
"==============================================================",
"==============================================================",
"==============================================================",
"==============================================================",
"==============================================================",
"==============================================================",
"==============================================================",
"==============================================================",
"=============================================================="
};
