/* XPM */
static char *result[] = {
/* columns rows colors chars-per-pixel */
"62 62 241 2 ",
"   c #1A0E1D",
".  c #130E1E",
"X  c #140D1F",
"o  c #28131F",
"O  c #35171E",
"+  c #0D0D22",
"@  c #130E21",
"#  c #190F22",
"$  c #151124",
"%  c #1C1224",
"&  c #1C1529",
"*  c #1A1727",
"=  c #191B36",
"-  c #231424",
";  c #291625",
":  c #2C1825",
">  c #211629",
",  c #26192B",
"<  c #2C1B2B",
"1  c #271826",
"2  c #331A25",
"3  c #3B1B24",
"4  c #331D2B",
"5  c #3C1E2A",
"6  c #321724",
"7  c #291E34",
"8  c #331F33",
"9  c #3D1F30",
"0  c #3B222D",
"q  c #34212C",
"w  c #2C2338",
"e  c #342135",
"r  c #3B2432",
"t  c #3D253A",
"y  c #36273E",
"u  c #2D252B",
"i  c #53231C",
"p  c #6C371D",
"a  c #421F27",
"s  c #43232C",
"d  c #4B252C",
"f  c #4C292D",
"g  c #472327",
"h  c #532729",
"j  c #542A2C",
"k  c #5B2C2C",
"l  c #562726",
"z  c #432532",
"x  c #4B2731",
"c  c #442B35",
"v  c #4C2B34",
"b  c #4B2D39",
"n  c #442C3A",
"m  c #532D34",
"M  c #5B2E31",
"N  c #522F38",
"B  c #4D3439",
"V  c #543036",
"C  c #5C3235",
"Z  c #54313B",
"A  c #5B343A",
"S  c #5B393D",
"D  c #513836",
"F  c #612E2A",
"G  c #66322C",
"H  c #633435",
"J  c #6A3634",
"K  c #6C3935",
"L  c #623639",
"P  c #653A3B",
"I  c #6C3B3B",
"U  c #673C34",
"Y  c #733B35",
"T  c #7B3E35",
"R  c #733D3A",
"E  c #793F39",
"W  c #753A2F",
"Q  c #33492C",
"!  c #346C3F",
"~  c #554937",
"^  c #7C4036",
"/  c #74413D",
"(  c #7C433B",
")  c #7C4B39",
"_  c #744233",
"`  c #70643A",
"'  c #362C44",
"]  c #2F314F",
"[  c #353C61",
"{  c #473547",
"}  c #563946",
"|  c #473D53",
" . c #4B3447",
".. c #653E44",
"X. c #316441",
"o. c #56475A",
"O. c #524253",
"+. c #6A4248",
"@. c #754442",
"#. c #7A4642",
"$. c #7D4943",
"%. c #724B49",
"&. c #664956",
"*. c #75565C",
"=. c #704D58",
"-. c #59536B",
";. c #565B79",
":. c #4E4C6C",
">. c #665768",
",. c #785B64",
"<. c #654E61",
"1. c #5C617E",
"2. c #786776",
"3. c #6D6575",
"4. c #4B6B40",
"5. c #8D431B",
"6. c #844235",
"7. c #8A4435",
"8. c #84443B",
"9. c #8A453A",
"0. c #844A3E",
"q. c #8B4A3C",
"w. c #8D4837",
"e. c #934D3A",
"r. c #904B36",
"t. c #96533D",
"y. c #8E5A38",
"u. c #B56228",
"i. c #B26B22",
"p. c #B06224",
"a. c #D2792E",
"s. c #D5761E",
"d. c #834C44",
"f. c #8B4C42",
"g. c #834D48",
"h. c #914F41",
"j. c #8D5244",
"k. c #8A534A",
"l. c #875247",
"z. c #945343",
"x. c #9A5543",
"c. c #9C5946",
"v. c #945B4B",
"b. c #995B4C",
"n. c #91564A",
"m. c #965D54",
"M. c #885A5A",
"N. c #A15C46",
"B. c #A35D49",
"V. c #9D6355",
"C. c #8B6658",
"Z. c #A6624D",
"A. c #A9654D",
"S. c #A26352",
"D. c #A86B57",
"F. c #BB7255",
"G. c #B67259",
"H. c #B46C4F",
"J. c #8A6666",
"K. c #9C746B",
"L. c #9B7266",
"P. c #896D74",
"I. c #906F74",
"U. c #B47A66",
"Y. c #865E63",
"T. c #C97C47",
"R. c #46995C",
"E. c #9B8234",
"W. c #D5842E",
"Q. c #EE8627",
"!. c #B9897A",
"~. c #5D638A",
"^. c #6A6E91",
"/. c #6D7397",
"(. c #73718B",
"). c #787DA9",
"_. c #87768A",
"`. c #847C9A",
"'. c #7B81A1",
"]. c #7C839A",
"[. c #93828A",
"{. c #898599",
"}. c #968898",
"|. c #8B818F",
" X c #B09599",
".X c #8287A4",
"XX c #8389A5",
"oX c #8C8AA6",
"OX c #8C8BA8",
"+X c #8D93AC",
"@X c #969AB4",
"#X c #928FAA",
"$X c #A897A6",
"%X c #A49BB0",
"&X c #A7A7BC",
"*X c #A4A4AC",
"=X c #C79B88",
"-X c #D1A692",
";X c #C6ABA6",
":X c #D7BBB0",
">X c #E3CBBF",
",X c #9DA7C4",
"<X c #A4AAC6",
"1X c #ABB0C4",
"2X c #B9B7C8",
"3X c #ACB4D5",
"4X c #B6BBD1",
"5X c #B5BDDB",
"6X c #ABABCA",
"7X c #ADB8E2",
"8X c #B3BEE7",
"9X c #C4BCC2",
"0X c #BAC4E3",
"qX c #B5C0DB",
"wX c #C7C7D7",
"eX c #D3C9CF",
"rX c #E2D1CB",
"tX c #C3CCE6",
"yX c #CBD6EC",
"uX c #D5DDEC",
"iX c #D8DBE7",
"pX c #CCD6F2",
"aX c #D3DAF3",
"sX c #DCE4ED",
"dX c #D5E0EC",
"fX c #DCE5F3",
"gX c #D7E4F7",
"hX c #E3E4E9",
"jX c #E4EBF3",
"kX c #E9EDF3",
"lX c #E3EEFC",
"zX c #E9E7F6",
"xX c #EDF1F5",
"cX c #EBF4FC",
"vX c #EBF6FF",
"bX c #F2F6FB",
"nX c #F5FAFD",
"mX c #FEFEFE",
"MX c #F5F5F8",
"NX c #E3DFE6",
"BX c #72D73B",
/* pixels */
"BXBXBXBXBXBXBXBXBXBXBXBXBXBXBXBXBXBXBXBXBXBXBXBXBXBXBXBXBXBXC U h BXBXBXBXBXBXBXBXBXBXBXBXBXBXBXBXBXBXBXBXBXBXBXBXBXBXBXBXBX",
"BXBXBXBXBXBXBXBXBXBXBXBXBXBXBXBXBXBXBXBXBXBXBXBXBXBXBXBXBXd k.S.6.j BXBXBXBXBXBXBXBXBXBXBXBXBXBXBXBXBXBXBXBXBXBXBXBXBXBXBXBX",
"BXBXBXBXBXBXBXBXBXBXBXBXBXBXBXBXBXBXBXBXBXBXBXBXBXBXBX3 r d w.e.w.M % % BXBXBXBXBXBXBXBXBXBXBXBXBXBXBXBXBXBXBXBXBXBXBXBXBXBX",
"BXBXBXBXBXBXBXBXBXBXBXBXBXBXBXBXBXBXBXBXBXBXBXBXBXd M C A h 8.x.7.d 4 N z o BXBXBXBXBXBXBXBXBXBXBXBXBXBXBXBXBXBXBXBXBXBXBXBX",
"BXBXBXBXBXBXBXBXBXBXBXBXBXBXBXBXBXBXBXBXBXBXBXBXM B.x.T M d 6.B.6.g 2 $.f.K x 3 BXBXBXBXBXBXBXBXBXBXBXBXBXBXBXBXBXBXBXBXBXBX",
"BXBXBXBXBXBXBXBXBXBXBXBXBXBXBXBXBXBXBXBXBXBXBXU D.F.N.^ N a d.B.6.d , J E 8.^ A 2 BXBXBXBXBXBXBXBXBXBXBXBXBXBXBXBXBXBXBXBXBX",
"BXBXBXBXBXBXBXBXBXBXBXBXBXBXBXBXBXBXBXBXBXBXs b.F.H.z.H a 3 b.B.6.s # 5 M J E J 4 BXBX{.@X+X+XOX@X{.BXBXBXBXBXBXBXBXBXBXBXBX",
"BXBXBXBXBXBXBXBXBXBXBXBXBXBXBXBXBXBXBXBXBXa x V.A.e.K H N d b.Z.6.s > s x x A L q + (.wX1.;.;.;.1.wX/.BXBXBXBXBXBXBXBXBXBXBX",
"BXBXBXBXBXBXBXBXBXBXBXBXBXBXBXBXBXBX  3 M Y v C G d.f.^ H d b.Z.6.g : / ( H x 5 , & {.@X;.~.~.~.;.@XXXBXBXBXBXBXBXBXBXBXBXBX",
"BXBXBXBXBXBXBXBXBXBXBXBXBXBXBXBXBX3 K f.x.l.j l z.G.c.T C h b.Z.6.s : $.h.8.E j 2 y |.mXnXmXmXmXnXmX].BXBXBXBXBXBXBXBXBXBXBX",
"BXBXBXBXBXBXBXBXBXBXBXBXBXBXBXBX1 / A.G.D.P o k.F.A.r.( c 3 b.B.6.d   Z / 9.9.K z 8 >.wXhXhXhXhXjXwX;.BXBXBXBXBXBXBXBXBXBXBX",
"BXBXBXBXBXBXBXBXBXBXBXBXBXBXBXBX: l.G.k.i C q l.H.q.6.F 3 3 b.Z.^ d - s j K E J 2 t t [ 1.;.~.;.;.[ BXBXBXBXBXBXBXBXBXBXBXBX",
"BXBXBXBXBXBXBXBXBXBXBXBXBXBX  u 2 U K k d.V.q ( 7.T T Y V h b.Z.^ d 2 R J j d m 1 N v | uX5X,XaX<X] BXBXBXBXBXBXBXBXBXBXBXBX",
"BXBXBXBXBXBXBXBXBXBXBXBX. < C I f 2 g n.G.D.v q k S.x.T A g j.B.6.g 6 g.h.T M 4 - N ..} <X8X7XbXsX[ $ BXBXBXBXBXBXBXBXBXBXBX",
"BXBXBXBXBXBXBXBXBXBXBXX q J z.V.L d v.F.A./ 4 j S.G.x.T N 3 8.B.6.d < d.x.9.8.H - 5 ..=.9XzXpX7X#X} b < BXBXBXBXBXBXBXBXBXBX",
"BXBXBXBXBXBXBXBXBXBXBX> C z.Z.^ M C D.v.K g 1 H G.c.Y C 5 6 8.B.6.d   j ( ^ 9.K < 3 m &.MXxXaXtXkXo.Z q BXBXBXBXBXBXBXBXBXBX",
"BXBXBXBXBXBXBXBXBXBXBX- S n.n.W k v / l $.m.< C l.k K M z d E w.9.a , L K F J H 4 N I A >.4XpX3X&X| n 4 @ BXBXBXBXBXBXBXBXBX",
"BXBXBXBXBXBXBXBXBX$ , 1 2 V Z.F./ q d d.H.b.5 z d h b.d.M M 6.h.9.a 2 f.f.j d v ; M 8.E h :.5XiX&X' > > & $ BXBXBXBXBXBXBXBX",
"BXBXBXBXBXBXBXBX: v B 1 O l.F.x.J 0 / S.r.9.H 5 d b.b.T C M q.B.7.k 4 h.h.^ k 5 > H 9.8...a 3.zXfXo.w # 7 < % BXBXBXBXBXBXBX",
"BXBXBXBXBXBXBX  c R L 2 V t.t.T F x ( f.T K N d m.x.7.Y a x n.Y T M ; ..h.9.8.m ; 6 H 9.E m % :.,Xo.b 4 e r 8 > BXBXBXBXBXBX",
"BXBXBXBXBXBXBX% m 8.P 6 C d.6.b.l.s / $.G / A l f.7.E x < r P v } s > z #.9.9.Y 9 < 3 H ..m 6 9 :.| t 2 e z r , BXBXBXBXBXBX",
"BXBXBXBXBXBXBX% b ( H o z a t.F.j.s L k / G.) F m.R x < & $ < ' w + # < 5 J 8.J 6 A k a x x 6 } b 1 , > % q t > BXBXBXBXBXBX",
"BXBXBXBXBXBXBX. < s @.d   k Z.F.0.s V K Z.z.k k @.d 4 & + = ~.)./.] + & < a L L ; L f.H a 8 ; m H N > > r < > $ BXBXBXBXBXBX",
"BXBXBXBXBXBXBXBXX A D.f ; R h.e./ 0 k S.e.8.C 3 r < & > 7 /.8XyX0X+X] > > , 9 9 6 J 7.9.C 6 4 ..H H r - A A 1 . BXBXBXBXBXBX",
"BXBXBXBXBXBXBX$ 0 d.m.d 2 Y T K V 6 K h.7.8.N 1 # % < 8 {.eX;X;X;XeX&X| , > # > 9 J 9.9.E < < z P L 9 , N ..b % BXBXBXBXBXBX",
"BXBXBXBXBXBXBX% N I k a 5 L A f s : I n.( k 5 > - t ' `.;X!.G.G.Z.D.=X%X| 9 < & 8 d E d.I 6 < 6 z S 4 > 6 m N - BXBXBXBXBXBX",
"BXBXBXBXBXBXBX& r 5 K ..4 s s R k.C d I m 4 > % c N oX>XD.E ..J H Y 9.;X6X| v < # < x L a 4 b z , , > , r 4 r , BXBXBXBXBXBX",
"BXBXBXBXBXBXBXBX  H G.m.s a / b.z.^ 2 ; 4 > % c { ).yX!.Y I.&XA $X}.C S.rX6X| v < % < 6 ; z L H N 5 % 4 Z m - X BXBXBXBXBXBX",
"BXBXBXBXBXBXBX. 4 d.A.x.3 H h.7.6.8.c > @ - b  .`.7X5XJ.C I.P.L P.P.C E 9XgX<X| b 4 @ & 4 L L C L N ; z H L 8 X BXBXBXBXBXBX",
"BXBXBXBXBXBXBX% v 8.w...3 J 9.7.8.k 5 & > S S {.pX7X3X=.h a h C h h a I 9XfXpX@X} } 4 # 8 v I H H v , t I H N , BXBXBXBXBXBX",
"BXBXBXBXBXBXBX- N E G m O d d.T M 4 & - A A {.aXaXpX0X&.m `._.} _.(. .} 2XgX7X8X,X+.P 2 # < x I Y 9 - - m P A : BXBXBXBXBXBX",
"BXBXBXBXBXBXBX# b N a A x ; r s 4 & o H ..{.gXuXuXaXuX<.d o.(.N _.>.a } 3X7X8XpXgX&X&.I 2 # < 9 z < 8 5 4 v N 1 BXBXBXBXBXBX",
"BXBXBXBXBXBXBX@ 4 a C J A 8 > & $ - C ..oXaXpXyXaXkXbX2X<.w - 5 1 , | @XzXfXuXuXuXdX&X&.H 4 @ & > < Z A N s 8 $ BXBXBXBXBXBX",
"BXBXBXBXBXBXBXBX2 L 9.E A 9 & @ - P +._.aXwX2XwXmXmXmXmXzX*XP.P.P.}.iXmXmXmXmXMXzXhXzX@X+.+.: $ $ 8 C H H N : BXBXBXBXBXBXBX",
"BXBXBXBXBXBXBXBXz 8.w.R x 9 & - S j z &.,.,.Y.Y.K.K.L.L.K.K.K.K.K.K.K.K.L.K.K.K.L.J.*.=. .l / u $ < x P L H v BXBXBXBXBXBXBX",
"BXBXBXBXBXBXBX% m 8.( h 4 > - V G j J E 8.8.d.q.x.r.x.c.e.B.B.b.B.N.e.t.t.r.e.9.^ 8.0.( W k j S 4 % 4 z M L Z > BXBXBXBXBXBX",
"BXBXBXBXBXBXBX- Z ( d < > % n x 4 N I @.@.@.#.$.$.( $.$.#.g.g.g.f.g.@.$.$.@.( @.#.@.$.@.K A a z B 1 % < 2 V Z % BXBXBXBXBXBX",
"BXBXBXBXBXBXBX$ q q < > % n 0 - 7 7 e 8 e e e e t e 8 t n t 9 z z t n t 8 8 t 8 8 w e e e 7 7 > 2 B , % u < e $ BXBXBXBXBXBX",
"BXBXBXBXBXBXBXBX+ $ $ * n f v % ;.'.XX'.'.XX'.XXXXXX.XoXoXoXoXoXOXOXOXOXXXXXoXoXXX'.XX'..X).^.7 0 f n , & $ @ BXBXBXBXBXBXBX",
"BXBXBXBXBXBXBXBXBXBX+ 7 f V P - '.pXnXnXnXnXbXbXbXnXbXbXcXbXbXbXcXfXsXjXbXbXcXcXfXfXjXbXbXgX,X' V A f e $ BXBXBXBXBXBXBXBXBX",
"BXBXBXBXBXBXBXBXBXBXBX# s L I 2 2XbXMXxXnXmXmXmXmXmXmXmXmXmXmXmXmXmXmXmXmXmXjXsXjXmXmXmXmXbXuXO.k ..m - BXBXBXBXBXBXBXBXBXBX",
"BXBXBXBXBXBXBXBXBXBXBXBX5 L #.0 &XbXsXiXsXmXmXmXmXmXmXmXmXmXmXmXmX>X-X-X-X-X=X=X=X-X:XmXmXMXiXO.K ..d BXBXBXBXBXBXBXBXBXBXBX",
"BXBXBXBXBXBXBXBXBXBXBXBXs E l.d }.xXmXjXdXsXmXmXmXmXmXmXMXxXxXnXrXU.A.b.b.j.h.b.0.r.D.:XnXmX&XS ( d.m BXBXBXBXBXBXBXBXBXBXBX",
"BXBXBXBXBXBXBXBXBXBXBXBXd ( z.R 2.xXmXMXxXMXmXmXmXmXmXmXkXdXdXfXJ./ D n { b s  .{ B / %.NXmX}.P z.w.k BXBXBXBXBXBXBXBXBXBXBX",
"BXBXBXBXBXBXBXBXBXBXBXBXBXJ x.z.*.kXmXmXmXmXmXmXmXmXmXmXmXmXmXbX,.g 2.<X5X2.,.5X6X3.c } iXmX[.Y N.6.k BXBXBXBXBXBXBXBXBXBXBX",
"BXBXBXBXBXBXBXBXBXBXBXBXBXj x.q.*.xXmXmXmXmXmXmXmXnXsXsXhXnXmXbX2.0  X|._.=.M.$X_._.n } sXmX[.Y Z.Y O BXBXBXBXBXBXBXBXBXBXBX",
"BXBXBXBXBXBXBXBXBXBXBXBXBXk c.f.*.xXmXmXmXmXmXmXmXmXsXsXxXnXmXMX,.5  .} } L L A } } f } wXlX[.^ D.J BXBXBXBXBXBXBXBXBXBXBXBX",
"BXBXBXBXBXBXBXBXBXBXBXBXBXj b.m.*.kXmXmXmXmXmXmXmXmXmXnXmXmXmXMXC.i ..p =...L *.<.} g O.dXnX[._ A.J BXBXBXBXBXBXBXBXBXBXBXBX",
"BXBXBXBXBXBXBXBXBXBXBXBXBXj b.f.,.uXhXbXmXmXmXmXmXmXmXmXmXmXmXrXa.p.F.W.=XP.) =X XL.K } sXcX[./ Z.U BXBXBXBXBXBXBXBXBXBXBXBX",
"BXBXBXBXBXBXBXBXBXBXBXBXBXk z.( ,.uXsXMXmXmXmXmXmXmXmXmXmXmXmXrXT.Q.Q.u.N.6.p.W.i.W.a.P hXlX[.U N.J BXBXBXBXBXBXBXBXBXBXBXBX",
"BXBXBXBXBXBXBXBXBXBXBXBXBXk z.Y <.dXMXmXmXmXmXmXmXmXmXmXmXmXmXeXS 5.u.5.s.i.y.p.Q.s.p f *XvX|.k c.J BXBXBXBXBXBXBXBXBXBXBXBX",
"BXBXBXBXBXBXBXBXBXBXBXBXBXj c.Y O.yXmXmXmXmXmXmXmXmXmXmXmXmXmX*X% q ~ ` i.y.4.~ _ ) f o 3.lX3.m b.J BXBXBXBXBXBXBXBXBXBXBXBX",
"BXBXBXBXBXBXBXBXBXBXBXBXBXd 8.l.} 1XmXmXmXmXmXmXmXmXmXmXmXmXmXwXy u Q ! ~ Q R.! * s c w +XpXo.#.h.C BXBXBXBXBXBXBXBXBXBXBXBX",
"BXBXBXBXBXBXBXBXBXBXBXBXBXa Y m.v }.mXmXmXmXmXmXmXmXmXmXmXmXmXnX1Xy u 4.~ ~ D D P V y ^.tX4Xr k.8.h BXBXBXBXBXBXBXBXBXBXBXBX",
"BXBXBXBXBXBXBXBXBXBXBXBXBXBXk g.g {.nXmXmXmXmXmXmXmXmXmXmXmXmXmXnX&X| w ' ' y y ' ' ^.qXcX2X2 ( I 3 BXBXBXBXBXBXBXBXBXBXBXBX",
"BXBXBXBXBXBXBXBXBXBXBXBXBXBXM ..2 |.jXjXxXmXmXmXmXmXmXmXmXmXmXxXkXvXdX<X,X&X,X<X,X,XqXdXmX2X: I H 5 BXBXBXBXBXBXBXBXBXBXBXBX",
"BXBXBXBXBXBXBXBXBXBXBXBXBXBXM / O (.vXgXcXmXmXmXmXmXmXmXmXmXmXjXfXfXvXmXmXnXvXlXvXlXlXbXmX1X- L A 5 BXBXBXBXBXBXBXBXBXBXBXBX",
"BXBXBXBXBXBXBXBXBXBXBXBXBXBXN +.- :.1XqX4X4X4X4X4X4X4X4X4X4X4X4XqX,X<X4X4X4X4X4X4X4X4X4X4X/.% A L 5 BXBXBXBXBXBXBXBXBXBXBXBX",
"BXBXBXBXBXBXBXBXBXBXBXBXBXBXr c & ] BXBXBXBXBXBXBXBXBXBXBXBXBXBXBXBXBXBXBXBXBXBXBXBXBXBXBX] * r c > BXBXBXBXBXBXBXBXBXBXBXBX",
"BXBXBXBXBXBXBXBXBXBXBXBXBXBXBXBXBXBXBXBXBXBXBXBXBXBXBXBXBXBXBXBXBXBXBXBXBXBXBXBXBXBXBXBXBXBXBXBXBXBXBXBXBXBXBXBXBXBXBXBXBXBX",
"BXBXBXBXBXBXBXBXBXBXBXBXBXBXBXBXBXBXBXBXBXBXBXBXBXBXBXBXBXBXBXBXBXBXBXBXBXBXBXBXBXBXBXBXBXBXBXBXBXBXBXBXBXBXBXBXBXBXBXBXBXBX",
"BXBXBXBXBXBXBXBXBXBXBXBXBXBXBXBXBXBXBXBXBXBXBXBXBXBXBXBXBXBXBXBXBXBXBXBXBXBXBXBXBXBXBXBXBXBXBXBXBXBXBXBXBXBXBXBXBXBXBXBXBXBX"
};
