/* XPM */
static char *result[] = {
/* columns rows colors chars-per-pixel */
"62 62 229 2 ",
"   c #0B0D12",
".  c #0E1116",
"X  c #111419",
"o  c #18171F",
"O  c #2A3C19",
"+  c #161620",
"@  c #1B1A23",
"#  c #41141B",
"$  c #741D17",
"%  c #5F301D",
"&  c #782D15",
"*  c #560D2F",
"=  c #5D1839",
"-  c #6C032B",
";  c #63082B",
":  c #74022B",
">  c #760529",
",  c #7B042B",
"<  c #7D1C23",
"1  c #690B33",
"2  c #770C34",
"3  c #691A3B",
"4  c #6A1C3B",
"5  c #7B1539",
"6  c #462F24",
"7  c #552F32",
"8  c #762638",
"9  c #6E3331",
"0  c #0F5218",
"q  c #294B11",
"w  c #27591D",
"e  c #234526",
"r  c #304F31",
"t  c #365737",
"y  c #1C6D30",
"u  c #2A6730",
"i  c #3C6534",
"p  c #24763A",
"a  c #397637",
"s  c #756E18",
"d  c #485435",
"f  c #65413E",
"g  c #794D35",
"h  c #4F702F",
"j  c #4E7E28",
"k  c #6C6E23",
"l  c #561F40",
"z  c #6B1E41",
"x  c #4F2A49",
"c  c #542644",
"v  c #5A2746",
"b  c #532D49",
"n  c #4B344D",
"m  c #53334D",
"M  c #563849",
"N  c #473E53",
"B  c #483D50",
"V  c #483F5E",
"C  c #5A3553",
"Z  c #533A53",
"A  c #583A54",
"S  c #682B4A",
"D  c #7B2545",
"F  c #68374D",
"G  c #72394D",
"H  c #34614A",
"J  c #445147",
"K  c #4E445B",
"L  c #4D4A5E",
"P  c #524256",
"I  c #5B4254",
"U  c #574D56",
"Y  c #72D73B",
"T  c #52495D",
"R  c #5C4B5C",
"E  c #7B4F4B",
"W  c #634957",
"Q  c #68535C",
"!  c #775B5E",
"~  c #4D7A46",
"^  c #527D4F",
"/  c #78784C",
"(  c #4C4561",
")  c #524C60",
"_  c #585364",
"`  c #813C1A",
"'  c #9A3A1C",
"]  c #87072C",
"[  c #8B062C",
"{  c #9A072D",
"}  c #910B2E",
"|  c #9A0A33",
" . c #891837",
".. c #9B1432",
"X. c #9A1632",
"o. c #A30D31",
"O. c #AB0B33",
"+. c #A41533",
"@. c #AA1131",
"#. c #B81636",
"$. c #88252D",
"%. c #993D23",
"&. c #892338",
"*. c #962838",
"=. c #8E3839",
"-. c #943132",
";. c #AD2C35",
":. c #A72438",
">. c #B22436",
",. c #C21A39",
"<. c #C9273C",
"1. c #D22B3E",
"2. c #994419",
"3. c #97501B",
"4. c #AA4A1D",
"5. c #AC5C19",
"6. c #AE631B",
"7. c #8C442B",
"8. c #934826",
"9. c #9E552D",
"0. c #9C493F",
"q. c #A54829",
"w. c #B85C29",
"e. c #A15538",
"r. c #BB5B31",
"t. c #8A692C",
"y. c #A66428",
"u. c #B26F2C",
"i. c #B67524",
"p. c #CD4E32",
"a. c #CD6D22",
"s. c #CA7829",
"d. c #D17D26",
"f. c #D07C35",
"g. c #8D3146",
"h. c #953644",
"j. c #90324C",
"k. c #AF3D49",
"l. c #D72E41",
"z. c #CF3F4A",
"x. c #D23847",
"c. c #DB3B42",
"v. c #984746",
"b. c #8D5349",
"n. c #8C514A",
"m. c #B5564D",
"M. c #886B48",
"N. c #9B704B",
"B. c #83635E",
"V. c #B56C4A",
"C. c #B66C4D",
"Z. c #A96653",
"A. c #8F6968",
"S. c #CF474A",
"D. c #DE4246",
"F. c #D74854",
"G. c #D15A51",
"H. c #E14649",
"J. c #E34949",
"K. c #E55450",
"L. c #CD6B56",
"P. c #C6645B",
"I. c #D5715B",
"U. c #E3655C",
"Y. c #E67152",
"T. c #CE6B60",
"R. c #F47D65",
"E. c #3E8934",
"W. c #4C872D",
"Q. c #53832A",
"!. c #59882A",
"~. c #588B38",
"^. c #67882A",
"/. c #6A8A29",
"(. c #759027",
"). c #4F854B",
"_. c #6B8F5B",
"`. c #739560",
"'. c #A38225",
"]. c #BB833A",
"[. c #CB8727",
"{. c #D98B29",
"}. c #DA992A",
"|. c #C99430",
" X c #DB9B34",
".X c #E3972B",
"XX c #C4A42C",
"oX c #DDA12B",
"OX c #D9A837",
"+X c #E8A82A",
"@X c #EAB32B",
"#X c #F7B82D",
"$X c #E2A933",
"%X c #ECB63C",
"&X c #9A9E5C",
"*X c #B5805D",
"=X c #958662",
"-X c #B39F6B",
";X c #BA9777",
":X c #CE8D53",
">X c #E39F47",
",X c #D1AB55",
"<X c #E4A445",
"1X c #C68867",
"2X c #DD9B6A",
"3X c #CC9277",
"4X c #D99C79",
"5X c #F88268",
"6X c #E09A65",
"7X c #CFAD7D",
"8X c #E9AB78",
"9X c #F0B37C",
"0X c #F2D55F",
"qX c #E6CA6C",
"wX c #F8E373",
"eX c #8DA690",
"rX c #B0AC91",
"tX c #CC9D80",
"yX c #D8AA83",
"uX c #D6B288",
"iX c #D4B68D",
"pX c #E6AE84",
"aX c #E9B587",
"sX c #A9CCB7",
"dX c #F0C59A",
"fX c #CAC7A8",
"gX c #F7CFA1",
"hX c #FCCDA2",
"jX c #FFD6AA",
/* pixels */
"Y Y Y Y Y Y Y Y Y Y Y Y Y Y Y Y Y Y Y Y Y Y Y Y Y Y Y Y Y Y Y Y Y Y Y Y Y Y Y Y Y Y Y Y Y Y Y Y Y Y Y Y Y Y Y Y Y Y Y Y Y Y ",
"Y Y Y Y Y Y Y Y Y Y Y Y Y Y Y Y Y Y Y Y Y Y Y Y Y Y Y Y Y Y Y Y Y Y Y Y Y Y Y Y Y Y Y Y Y Y Y Y Y Y Y Y Y Y Y Y Y Y Y Y Y Y ",
"Y Y Y Y Y Y Y Y Y Y Y Y Y Y Y Y Y Y Y Y Y Y Y Y Y Y Y Y Y Y Y Y Y Y Y Y Y Y Y Y Y Y Y Y Y Y Y Y Y Y Y Y Y Y Y Y Y Y Y Y Y Y ",
"Y Y Y Y Y Y Y Y Y Y Y Y Y Y Y Y Y Y Y Y Y Y Y Y Y Y Y Y Y Y Y Y Y Y Y Y Y Y Y Y Y Y Y Y Y Y Y Y Y Y Y Y Y Y Y Y Y Y Y Y Y Y ",
"Y Y Y Y Y Y Y Y Y Y Y Y Y Y Y Y Y Y Y Y Y Y Y Y Y Y Y Y Y Y Y Y Y Y Y Y Y Y Y Y Y Y Y Y Y Y Y Y Y Y Y Y Y Y Y Y Y Y Y Y Y Y ",
"Y Y Y Y Y Y Y Y Y Y Y Y Y Y Y Y Y Y Y Y Y Y Y Y Y Y Y Y Y Y Y Y Y Y Y Y Y Y Y Y Y Y Y Y Y Y Y Y Y Y Y Y Y Y Y Y Y Y Y Y Y Y ",
"Y Y Y Y Y Y Y Y Y Y Y Y Y Y Y Y Y Y Y Y Y Y Y Y Y Y Y Y Y Y Y Y Y Y Y Y Y Y Y Y Y Y Y Y Y Y Y Y Y Y Y Y Y Y Y Y Y Y Y Y Y Y ",
"Y Y Y Y Y Y Y Y Y Y Y Y Y Y Y Y Y Y Y Y Y Y Y Y Y Y Y Y Y Y Y Y Y Y Y Y Y Y Y Y Y Y Y Y Y Y Y Y Y Y Y Y Y Y Y Y Y Y Y Y Y Y ",
"Y Y Y Y Y Y Y Y Y Y Y Y Y Y Y Y Y Y Y Y Y Y Y Y Y Y Y Y Y Y Y Y Y Y Y Y Y Y Y Y Y Y Y Y Y Y Y Y Y Y Y Y Y Y Y Y Y Y Y Y Y Y ",
"Y Y Y Y Y Y Y Y Y Y Y Y Y Y Y Y Y Y Y Y Y Y Y Y Y Y Y Y Y Y Y Y Y Y Y Y Y Y Y Y Y Y Y Y Y Y Y Y Y Y Y Y Y Y Y Y Y Y Y Y Y Y ",
"Y Y Y Y Y Y Y Y Y Y Y Y Y Y Y Y Y Y Y Y Y Y Y Y Y Y Y Y Y Y Y Y Y Y Y Y Y Y Y Y Y Y Y Y Y Y Y Y Y Y Y Y Y Y Y Y Y Y Y Y Y Y ",
"Y Y Y Y Y Y Y Y Y Y Y Y Y Y Y Y Y Y Y Y Y Y Y Y Y Y Y Y Y Y Y Y Y Y Y Y Y Y Y Y Y Y Y Y Y Y Y Y Y Y Y Y Y Y Y Y Y Y Y Y Y Y ",
"Y Y Y Y Y Y Y Y Y Y Y Y Y Y Y Y Y Y Y Y Y Y Y Y Y Y Y Y Y Y Y Y Y Y Y Y Y Y Y Y Y Y Y Y Y Y Y Y Y Y Y Y Y Y Y Y Y Y Y Y Y Y ",
"Y Y Y Y Y Y Y Y Y Y Y Y Y Y Y Y Y Y Y Y Y Y Y Y Y Y Y Y Y Y Y Y Y Y Y Y Y Y Y Y Y Y Y Y Y Y Y Y Y Y Y Y Y Y Y Y Y Y Y Y Y Y ",
"Y Y Y Y Y Y Y Y Y Y Y Y Y Y Y Y Y Y Y Y Y Y Y Y Y Y Y Y Y Y Y Y Y Y Y Y Y Y Y Y Y Y Y Y Y Y Y Y Y Y Y Y Y Y Y Y Y Y Y Y Y Y ",
"Y Y Y Y Y Y Y Y Y Y Y Y Y Y Y Y Y Y Y Y Y Y Y Y Y Y Y Y Y Y Y Y Y Y Y Y Y Y Y Y Y Y Y Y Y Y Y Y Y Y Y Y Y Y Y Y Y Y Y Y Y Y ",
"Y Y Y Y Y Y Y Y Y Y Y Y Y Y Y Y Y Y Y Y Y Y Y Y Y Y Y Y Y Y Y Y Y Y Y Y Y Y Y Y Y Y Y Y Y Y Y Y Y Y Y Y Y Y Y Y Y Y Y Y Y Y ",
"Y Y Y Y Y Y Y Y Y Y Y Y Y Y Y Y Y Y Y Y Y Y Y ) Y m m m m m Z T T T Y Y Y Y Y Y Y Y Y Y Y Y Y Y Y Y Y Y Y Y Y Y Y Y Y Y Y Y ",
"Y Y Y Y Y Y Y Y Y Y Y Y Y Y Y Y Y Y Y Y Y ) P x l , , : , , 1 b b n T Y Y Y Y Y Y Y Y Y Y Y Y Y Y Y Y Y Y Y Y Y Y Y Y Y Y Y ",
"Y Y Y Y Y Y Y Y Y Y Y Y Y Y Y Y Y Y Y ) B n 4 } :.l.1.1.<.1.<. .] 2 b m Y Y Y Y T Y Y Y Y Y Y Y Y Y Y Y Y Y Y Y Y Y Y Y Y Y ",
"Y Y Y Y Y Y Y Y Y Y Y Y Y Y Y Y Y Y T B 3 [ ..<.c.H.H.H.H.D.J.H.l.<.] ] b T Y Y Y Y Y Y Y Y Y Y Y Y Y Y Y Y Y Y Y Y Y Y Y Y ",
"Y Y Y Y Y Y Y Y Y Y Y Y Y Y Y Y Y Y C 3 @.,.#.#.<.J.D.H.D.c.c.c.c.c.1.<.] c Y Y Y Y Y Y Y Y Y Y Y Y Y Y Y Y Y Y Y Y Y Y Y Y ",
"Y Y Y Y Y Y Y Y Y Y Y Y Y Y Y Y Y ) v [ ,.@.| @.#.x.H.c.J.5XR.R.R.R.R.R.U.[ c Y Y Y Y Y Y Y Y Y Y Y Y Y Y Y Y Y Y Y Y Y Y Y ",
"Y Y Y Y Y Y Y Y Y Y Y Y Y Y Y Y Y b 1 ] o.] - | #.#.K.5XI.g.g.j.g.j.h.g.v.U...= Y Y Y Y Y Y Y Y Y Y Y Y Y Y Y Y Y Y Y Y Y Y ",
"Y Y Y Y Y Y Y Y Y Y Y Y Y Y Y Y Y c > } : - | #.#.x.I.D =.4.u.i.u.' $ 4.%.h.U.; A Y Y Y Y Y Y Y Y Y Y Y Y Y Y Y Y Y Y Y Y Y ",
"Y Y Y Y Y Y Y Y Y Y Y Y Y Y Y Y Y c > , - } #.#.z.P.$.6.[.%X0X%XwX,X8.0X}.4.8 3 Y Y Y Y Y Y Y Y Y Y Y Y Y Y Y Y Y Y Y Y Y Y ",
"Y Y Y Y Y Y Y Y Y Y Y Y Y Y Y Y Y c , , - o.#.z.P.$.s.[.6.@XOX}.|.y.1Xy..X+X4.1 Y Y Y Y Y Y Y Y Y Y Y Y Y Y Y Y Y Y Y Y Y Y ",
"Y Y Y Y Y Y Y Y Y Y Y Y Y Y Y Y Y b : : - { F.C.< d.i.8.V.& & 2.9.2XyXV.e.$XoX& P Y Y Y Y Y Y Y Y Y Y Y Y Y Y Y Y Y Y Y Y Y ",
"Y Y Y Y Y Y Y Y Y Y Y Y Y Y Y Y Y Y v ; - { S.m.8.|.& 6 6 7 g 2X8XyX6 I % OXqX& P Y Y Y Y Y Y Y Y Y Y Y Y Y Y Y Y Y Y Y Y Y ",
"Y Y Y Y Y Y Y Y Y Y Y Y Y Y Y Y Y Y ) v > } : < >X,Xb.eXu fX8XdXdX7Xw rXe.[.qX7.P Y Y Y Y Y Y Y Y Y Y Y Y Y Y Y Y Y Y Y Y Y ",
"Y Y Y Y Y Y Y Y Y Y Y Y Y Y Y Y Y Y T m 1 [ : < >X,XN.sX0 i gXdXhXuX0 0 0.s.,X8.P Y Y Y Y Y Y Y Y Y Y Y Y Y Y Y Y Y Y Y Y Y ",
"Y Y Y Y Y Y Y Y Y Y Y Y Y Y Y Y Y T Y T Z 1 - <  X:Xb.fX_.&XhXdXjXiX`./ e.a.}.` P Y Y Y Y Y Y Y Y Y Y Y Y Y Y Y Y Y Y Y Y Y ",
"Y Y Y Y Y Y Y Y Y Y Y Y Y Y Y Y Y Y Y Y L P * $.{.{.' L.4X4X2X3X4X3X2XL.w.[.i.f P Y Y Y Y Y Y Y Y Y Y Y Y Y Y Y Y Y Y Y Y Y ",
"Y Y Y Y Y Y Y Y Y Y Y Y Y Y Y Y Y Y Y Y Y Y Z 9 6..X[.3.$.$.$.:.*.$.9 w.a.oX& P Y Y Y Y Y Y Y Y Y Y Y Y Y Y Y Y Y Y Y Y Y Y ",
"Y Y Y Y Y Y Y Y Y Y Y Y Y Y Y Y Y Y Y P Y P ) A $ 5..Xi.& { O.H.K.| [ %.{.y.9 Y Y Y Y Y Y Y Y Y Y Y Y Y Y Y Y Y Y Y Y Y Y Y ",
"Y Y Y Y Y Y Y Y Y Y Y Y Y Y Y Y Y Y Y Y Y L Z 1 [ ' 2.4.S.R.G. .h.J.U.;.7.A ( K Y Y Y Y Y Y Y Y Y Y Y Y Y Y Y Y Y Y Y Y Y Y ",
"Y Y Y Y Y Y Y Y Y Y Y Y Y Y Y Y Y Y Y K W b.8 ; , , ; $  .g.0.].*X .j. .; n.n.T Y Y Y Y Y Y Y Y Y Y Y Y Y Y Y Y Y Y Y Y Y Y ",
"Y Y Y Y Y Y Y Y Y Y Y Y Y Y Y Y Y Y K W V.2XyXtXT.% e t r r t ~.).t e O T.pX4Xn.Y Y Y Y Y Y Y Y Y Y Y Y Y Y Y Y Y Y Y Y Y Y ",
"Y Y Y Y Y Y Y Y Y Y Y Y Y Y Y Y Y Y Y K E m.1XpXg w p a W.!.~.Q.Q.~.y w 2XZ.N.W Y Y Y Y Y Y Y Y Y Y Y Y Y Y Y Y Y Y Y Y Y Y ",
"Y Y Y Y Y Y Y Y Y Y Y Y Y Y Y Y Y Y Y L L = 8 h.6 0 a !./.^././././.j q 0.P P K Y Y Y Y Y Y Y Y Y Y Y Y Y Y Y Y Y Y Y Y Y Y ",
"Y Y Y Y Y Y Y Y Y Y Y Y Y Y Y Y Y Y Y Y T M ; - # 0 a Q.Q.W.!.Q.Q.Q.j O = K Y Y Y Y Y Y Y Y Y Y Y Y Y Y Y Y Y Y Y Y Y Y Y Y ",
"Y Y Y Y Y Y Y Y Y Y Y Y Y Y Y Y Y Y Y Y Y T m ; : 7 a ~ ^ i t i h ).d = P Y Y Y Y Y Y Y Y Y Y Y Y Y Y Y Y Y Y Y Y Y Y Y Y Y ",
"Y Y Y Y Y Y Y Y Y Y Y Y Y Y Y Y Y Y Y Y Y Y T m 1 8 V.9XpX=.4 V.8XaXv.4 Y Y Y Y Y Y Y Y Y Y Y Y Y Y Y Y Y Y Y Y Y Y Y Y Y Y ",
"Y Y Y Y Y Y Y Y Y Y Y Y Y Y Y Y Y Y Y Y Y Y Y Y L A e.L.G.G A 0.I.C.9 ) Y Y Y Y Y Y Y Y Y Y Y Y Y Y Y Y Y Y Y Y Y Y Y Y Y Y ",
"Y Y Y Y Y Y Y Y Y Y Y Y Y Y Y Y Y Y Y Y Y Y Y Y T b , l.#.* B : ,.#. .v Y Y Y Y Y Y Y Y Y Y Y Y Y Y Y Y Y Y Y Y Y Y Y Y Y Y ",
"Y Y Y Y Y Y Y Y Y Y Y Y Y Y Y Y Y Y Y Y Y Y Y Y Y B D >.*.b Y z } | :.v P Y Y Y Y Y Y Y Y Y Y Y Y Y Y Y Y Y Y Y Y Y Y Y Y Y ",
"Y Y Y Y Y Y Y Y Y Y Y Y Y Y Y Y Y Y Y Y Y Y Y K Y T P l b T T P c c b T Y Y Y Y Y Y Y Y Y Y Y Y Y Y Y Y Y Y Y Y Y Y Y Y Y Y ",
"Y Y Y Y Y Y Y Y Y Y Y Y Y Y Y Y Y Y Y Y Y Y Y Y Y Y Y Y Y Y Y Y Y Y Y Y Y Y Y Y Y Y Y Y Y Y Y Y Y Y Y Y Y Y Y Y Y Y Y Y Y Y ",
"Y Y Y Y Y Y Y Y Y Y Y Y Y Y Y Y Y Y Y Y Y Y Y Y Y Y Y Y Y Y Y Y Y Y Y Y Y Y Y Y Y Y Y Y Y Y Y Y Y Y Y Y Y Y Y Y Y Y Y Y Y Y ",
"Y Y Y Y Y Y Y Y Y Y Y Y Y Y Y Y Y Y Y Y Y Y Y Y Y Y Y Y Y Y Y Y Y Y Y Y Y Y Y Y Y Y Y Y Y Y Y Y Y Y Y Y Y Y Y Y Y Y Y Y Y Y ",
"Y Y Y Y Y Y Y Y Y Y Y Y Y Y Y Y Y Y Y Y Y Y Y Y Y Y Y Y Y Y Y Y Y Y Y Y Y Y Y Y Y Y Y Y Y Y Y Y Y Y Y Y Y Y Y Y Y Y Y Y Y Y ",
"Y Y Y Y Y Y Y Y Y Y Y Y Y Y Y Y Y Y Y Y Y Y Y Y Y Y Y Y Y Y Y Y Y Y Y Y Y Y Y Y Y Y Y Y Y Y Y Y Y Y Y Y Y Y Y Y Y Y Y Y Y Y ",
"Y Y Y Y Y Y Y Y Y Y Y Y Y Y Y Y Y Y Y Y Y Y Y Y Y Y Y Y Y Y Y Y Y Y Y Y Y Y Y Y Y Y Y Y Y Y Y Y Y Y Y Y Y Y Y Y Y Y Y Y Y Y ",
"Y Y Y Y Y Y Y Y Y Y Y Y Y Y Y Y Y Y Y Y Y Y Y Y Y Y Y Y Y Y Y Y Y Y Y Y Y Y Y Y Y Y Y Y Y Y Y Y Y Y Y Y Y Y Y Y Y Y Y Y Y Y ",
"Y Y Y Y Y Y Y Y Y Y Y Y Y Y Y Y Y Y Y Y Y Y Y Y Y Y Y Y Y Y Y Y Y Y Y Y Y Y Y Y Y Y Y Y Y Y Y Y Y Y Y Y Y Y Y Y Y Y Y Y Y Y ",
"Y Y Y Y Y Y Y Y Y Y Y Y Y Y Y Y Y Y Y Y Y Y Y Y Y Y Y Y Y Y Y Y Y Y Y Y Y Y Y Y Y Y Y Y Y Y Y Y Y Y Y Y Y Y Y Y Y Y Y Y Y Y ",
"Y Y Y Y Y Y Y Y Y Y Y Y Y Y Y Y Y Y Y Y Y Y Y Y Y Y Y Y Y Y Y Y Y Y Y Y Y Y Y Y Y Y Y Y Y Y Y Y Y Y Y Y Y Y Y Y Y Y Y Y Y Y ",
"Y Y Y Y Y Y Y Y Y Y Y Y Y Y Y Y Y Y Y Y Y Y Y Y Y Y Y Y Y Y Y Y Y Y Y Y Y Y Y Y Y Y Y Y Y Y Y Y Y Y Y Y Y Y Y Y Y Y Y Y Y Y ",
"Y Y Y Y Y Y Y Y Y Y Y Y Y Y Y Y Y Y Y Y Y Y Y Y Y Y Y Y Y Y Y Y Y Y Y Y Y Y Y Y Y Y Y Y Y Y Y Y Y Y Y Y Y Y Y Y Y Y Y Y Y Y ",
"Y Y Y Y Y Y Y Y Y Y Y Y Y Y Y Y Y Y Y Y Y Y Y Y Y Y Y Y Y Y Y Y Y Y Y Y Y Y Y Y Y Y Y Y Y Y Y Y Y Y Y Y Y Y Y Y Y Y Y Y Y Y ",
"Y Y Y Y Y Y Y Y Y Y Y Y Y Y Y Y Y Y Y Y Y Y Y Y Y Y Y Y Y Y Y Y Y Y Y Y Y Y Y Y Y Y Y Y Y Y Y Y Y Y Y Y Y Y Y Y Y Y Y Y Y Y ",
"Y Y Y Y Y Y Y Y Y Y Y Y Y Y Y Y Y Y Y Y Y Y Y Y Y Y Y Y Y Y Y Y Y Y Y Y Y Y Y Y Y Y Y Y Y Y Y Y Y Y Y Y Y Y Y Y Y Y Y Y Y Y "
};
