/* XPM */
static char *result[] = {
/* columns rows colors chars-per-pixel */
"62 62 247 2 ",
"   c #000609",
".  c #001402",
"X  c #00120A",
"o  c #001A07",
"O  c #060D19",
"+  c #021415",
"@  c #05171B",
"#  c #1B131D",
"$  c #190A1C",
"%  c #23111A",
"&  c #2D0F1D",
"*  c #052A07",
"=  c #02241B",
"-  c #072915",
";  c #02391C",
":  c #113317",
">  c #0C1524",
",  c #0B1C25",
"<  c #091C26",
"1  c #131926",
"2  c #100E25",
"3  c #271829",
"4  c #361D2A",
"5  c #2B1835",
"6  c #32153A",
"7  c #0A2324",
"8  c #092928",
"9  c #14262A",
"0  c #0A3729",
"q  c #15382B",
"w  c #152533",
"e  c #192533",
"r  c #1B2D3B",
"t  c #162B35",
"y  c #0C3933",
"u  c #1B323D",
"i  c #1C3A3D",
"p  c #153938",
"a  c #3B212E",
"s  c #262939",
"d  c #3C2334",
"f  c #372738",
"g  c #23383B",
"h  c #393637",
"j  c #312A2B",
"k  c #521C2E",
"l  c #631B39",
"z  c #46252C",
"x  c #58272B",
"c  c #442A34",
"v  c #482A38",
"b  c #532C33",
"n  c #5A2836",
"m  c #4D3338",
"M  c #573338",
"N  c #45302A",
"B  c #623334",
"V  c #693737",
"C  c #743C3A",
"Z  c #672D35",
"A  c #054B19",
"S  c #0C472B",
"D  c #07562B",
"F  c #165528",
"G  c #0A4937",
"H  c #1B433D",
"J  c #164A39",
"K  c #055432",
"L  c #0B5B34",
"P  c #0A5A39",
"I  c #145639",
"U  c #234734",
"Y  c #25573A",
"T  c #365932",
"R  c #086829",
"E  c #03772E",
"W  c #076539",
"Q  c #15653A",
"!  c #0A7735",
"~  c #187634",
"^  c #2E6934",
"/  c #08731C",
"(  c #7B413D",
")  c #755B3B",
"_  c #5E403D",
"`  c #1E3B43",
"'  c #1E3644",
"]  c #1F2C41",
"[  c #372643",
"{  c #233C44",
"}  c #283647",
"|  c #383647",
" . c #2B2A43",
".. c #641E48",
"X. c #771D4D",
"o. c #472845",
"O. c #5B2646",
"+. c #493944",
"@. c #553249",
"#. c #622546",
"$. c #683E43",
"%. c #7B2D4B",
"&. c #491D43",
"*. c #1B4744",
"=. c #1B5343",
"-. c #195945",
";. c #0F5440",
":. c #234345",
">. c #244D4A",
",. c #28474A",
"<. c #354547",
"1. c #23524A",
"2. c #245B4C",
"3. c #285649",
"4. c #38564D",
"5. c #324852",
"6. c #2E5152",
"7. c #196847",
"8. c #1C744E",
"9. c #177947",
"0. c #1E7751",
"q. c #0C6F41",
"w. c #276748",
"e. c #30654A",
"r. c #257A4B",
"t. c #276853",
"y. c #346858",
"u. c #277757",
"i. c #34765A",
"p. c #357C4F",
"a. c #357A62",
"s. c #484548",
"d. c #534F51",
"f. c #784342",
"g. c #6C454C",
"h. c #49624D",
"j. c #457845",
"k. c #4C7251",
"l. c #767154",
"z. c #437A6B",
"x. c #567C6B",
"c. c #47756C",
"v. c #676D6A",
"b. c #84443B",
"n. c #89433B",
"m. c #941F42",
"M. c #932B57",
"N. c #973154",
"B. c #8D2D50",
"V. c #A6344D",
"C. c #A82D5B",
"Z. c #B72A56",
"A. c #A73155",
"S. c #B43356",
"D. c #BE2F47",
"F. c #C92D48",
"G. c #C62B51",
"H. c #C53A57",
"J. c #D6344A",
"K. c #834843",
"L. c #8C4B51",
"P. c #BA4C68",
"I. c #8E5E53",
"U. c #D44F67",
"Y. c #EA586B",
"T. c #E94554",
"R. c #168C36",
"E. c #279436",
"W. c #1CA93D",
"Q. c #26AA3A",
"!. c #38AB3E",
"~. c #4AA13A",
"^. c #168847",
"/. c #149B43",
"(. c #19984B",
"). c #1C8453",
"_. c #1E8954",
"`. c #1C9455",
"'. c #1C9B52",
"]. c #1E9459",
"[. c #179650",
"{. c #0F9742",
"}. c #22864B",
"|. c #24964C",
" X c #289647",
".X c #228455",
"XX c #248D5C",
"oX c #298758",
"OX c #358958",
"+X c #259C53",
"@X c #23935B",
"#X c #299557",
"$X c #349558",
"%X c #36864B",
"&X c #1BA44C",
"*X c #1EA94A",
"=X c #1DA845",
"-X c #1EA251",
";X c #24A54C",
":X c #27A848",
">X c #38AA4C",
",X c #2DB648",
"<X c #38B847",
"1X c #25A453",
"2X c #29A454",
"3X c #28A856",
"4X c #33A355",
"5X c #33A35A",
"6X c #3CA45A",
"7X c #2BB954",
"8X c #37B855",
"9X c #2D8D61",
"0X c #338C64",
"qX c #3C8B6B",
"wX c #388865",
"eX c #2C9263",
"rX c #399267",
"tX c #3EAA63",
"yX c #48885C",
"uX c #508A4C",
"iX c #6A8258",
"pX c #45B654",
"aX c #4EB358",
"sX c #64B95A",
"dX c #46876B",
"fX c #479A68",
"gX c #458B72",
"hX c #549073",
"jX c #46A467",
"kX c #53B071",
"lX c #6AB772",
"zX c #739E73",
"xX c #34C44E",
"cX c #54C855",
"vX c #56D457",
"bX c #4DC94D",
"nX c #64CB54",
"mX c #78DE55",
"MX c #65D653",
"NX c #74CF71",
"BX c #70E367",
"VX c #73E05E",
"CX c #88DA59",
"ZX c #8FD666",
"AX c #84E258",
"SX c #7AD282",
"DX c #72D73B",
/* pixels */
"DXDXDXDXDXDXDXDXDXDXDXDXDXDXDXDXDXDXDXDXDXDXDXDXDXDXDXDXDXDXDXDXDXDXDXDXDXDXDXDXDXDXDXDXDXDXDXDXDXDXDXDXDXDXDXDXDXDXDXDXDXDX",
"DXDXDXDXDXDXDXDXDXDXDXDXDXDXDXDXDXDXDXDXDXDXDXDXDXDXDX. . . . . . . . o X DXDXDXDXDXDXDXDXDXDXDXDXDXDXDXDXDXDXDXDXDXDXDXDXDX",
"DXDXDXDXDXDXDXDXDXDXDXDXDXDXDXDXDXDXDXDX        O   * j.k.j.uXj.^ j.^ Y J . DXDXDXDXDXDXDXDXDXDXDXDXDXDXDXDXDXDXDXDXDXDXDXDX",
"DXDXDXDXDXDXDXDXDXDXDXDXDXDXDXDXDXDXDX: T T T ^ Y A ^ lXSXSXNXNXjXNXkXjXOXF DXDXDXDXDXDXDXDXDXDXDXDXDXDXDXDXDXDXDXDXDXDXDXDX",
"DXDXDXDXDXDXDXDXDXDXDXDXDXDXDXDXDXDX* uXZXZXCXmXaX XQ.<XpX7X<X7X:X;X+X1X2X$XF DXDXDX: 0 DXDXDXDXDXDXDXDXDXDXDXDXDXDXDXDXDXDX",
"DXDXDXDXDXDXDXDXDXDXDXDXDXDXDX# 9 : uXZXCXCXmXbX!.Q.Q.Q.Q.W.Q.Q.Q.W.W.R.W.4XlXT * F hXhXq DXDXDXDXDXDXDXDXDXDXDXDXDXDXDXDXDX",
"DXDXDXDXDXDXDXDXDXDXDXDXDXDXDXg zXsXZXVXAXmXbXxX,XQ.Q.Q.Q.W.xXMXMX!.,X:X{.|.pXaX>X4XkXdXq DXDXDXDXDXDXDXDXDXDXDXDXDXDXDXDXDX",
"DXDXDXDXDXDXDXDXDXDXDXDXDXDXDX: ^ sXnXsXbXbX!.E.R.<XvXcXQ.Q.pXAXAXvXxX,X;X/.Q.pX8X3X|.J = DXDXDXDXDXDXDXDXDXDXDXDXDXDXDXDXDX",
"DXDXDXDXDXDXDXDXDXDXDXDXDXDXDXDX. ^ uXpXpX X XE.>XvXBXvX,XW.<XnXBXBXbX7X7X;X~ %X$X6X}.= DXDXDXDXDXDXDXDXDXDXDXDXDXDXDXDXDXDX",
"DXDXDXDXDXDXDXDXDXDXDXDXDXDXDXDXDX- Q $Xr.I F sXmXMXvXxXW.W.Q.>XcXcXxX,XxX:XA Y dX%Xe.7 DXDXDXDXDXDXDXDXDXDXDXDXDXDXDXDXDXDX",
"DXDXDXDXDXDXDXDXDXDXDXDXDXDXDX7 8 I L R L I Q aXnXpX!.,X:X=X4XE./ E.6XpX8X$X0 9 0 * - DXDXDXDXDXDXDXDXDXDXDXDXDXDXDXDXDXDXDX",
"DXDXDXDXDXDXDXDXDXDXDXDXDXDXp a.oX#X X(.(._.).8XxX8XxX=X/.&X2X XR R %XzXz.q g s p G S - @ DXDXDXDXDXDXDXDXDXDXDXDXDXDXDXDXDX",
"DXDXDXDXDXDXDXDXDXDXDXDXDXX J rX#X'.;X3X-X[.`.&X*X*X&X{./.-X3X+X9.F p U +.5 f | :.2.i.w.t.y DXDXDXDXDXDXDXDXDXDXDXDXDXDXDXDX",
"DXDXDXDXDXDXDXDXDXDXDXDXDXX J gXOX$X).R.^.`.[.[.{.{.*X&X/.'.3X1XOXU 3 z C L.%.l h y.gXgXgXy.p DXDXDXDXDXDXDXDXDXDXDXDXDXDXDX",
"DXDXDXDXDXDXDXDXDXDXDXDXDXDXp y.u.w.I R 9.].[.[.[.*X7XxX-X'.1X-X%Xh l V.U.Y.H.m.n 4.a.u.XXgXt.o DXDXDXDXDXDXDXDXDXDXDXDXDXDX",
"DXDXDXDXDXDXDXDXDXDXDXDXDXDXDX= = = J i.tX3X[.[.7X7X7X7X/.[.-X-Xp.v B.U.Y.J.G.S.l g 2.;.8.a.2.+ DXDXDXDXDXDXDXDXDXDXDXDXDXDX",
"DXDXDXDXDXDXDXDXDXDXDXDXDXDXDXDX> < e.dX$X$X3X7X7X7X7X|.E ^.1X&X%Xb N.H.J.J.G.Z.#.<.c.-.G y 7 DXDX+ DXDXDXDXDXDXDXDXDXDXDXDX",
"DXDXDXDXDXDXDXDXDXDXDXDXDXDXDX> w 9 0 S A A |.8XxX7X2X! R.(.2X1XuXM m.H.F.F.Z.C.O.<.z.a.u.1.8 + + >.g DXDXDXDXDXDXDXDXDXDXDX",
"DXDXDXDXDXDXDXDXDXDXDXDXDXDXq 3.w.w.S ; ; A $XjXtX XR ~ |.1X5XrXe.j #.M.S.C.C.X.+.y.qXqXrXu.1.I I dX,.O DXDXDXDXDXDXDXDXDXDX",
"DXDXDXDXDXDXDXDXDXDXDXDXDX. F jX4X6XQ U 1.7.p.OX0.D A OX4X;X$Xr.H { [ O.M.M.X.O.h.eX].9X.XW 7.qX0Xu.y DXDXDXDXDXDXDXDXDXDXDX",
"DXDXDXDXDXDXDXDXDXDXDXDXDX* Q 6X4X$XU j s.U Y J A - ; OX$X#Xw.S >.1.4.s.o.v [ +.i.XX`.@Xq.E 9.oX8.0 DXDXDXDXDXDXDXDXDXDXDXDX",
"DXDXDXDXDXDXDXDXDXDXDXDX+ Q 4X$XrX^ h k l n s.<.*.J I 3.:.H y y 1.=.i.z.y.3.I u.0XXX`.`.@X+X+X^.; DXDXDXDXDXDXDXDXDXDXDXDXDX",
"DXDXDXDXDXDXDXDXDXDXDXDX@ 7.2X$XyXh Z P.P.B.O.<.1.=.I >.p r i ,.=.P u.eX#X).).].].].[.! |.5X;X#Xw.8 DXDXDXDXDXDXDXDXDXDXDXDX",
"DXDXDXDXDXDXDXDXDXDXDX+ J u.+Xp.s.C P.Y.U.S.%.c 4.i.}.r.r.G S 1.-.8._.XX@X@X@X@X].]._.9.9.(.&X5XwX0 DXDXDXDXDXDXDXDXDXDXDXDX",
"DXDXDXDXDXDXDXDXDXDXDX= i.rX#Xk.x A.Y.T.F.G.V.x e.fX2X3X5X^.I I -.XX].].`.`.`.`.`.@X9XqXL ! 3X5XwX0 DXDXDXDXDXDXDXDXDXDXDXDX",
"DXDXDXDXDXDXDXDXDXDXDX@ 2.u.u.h.l V.D.F.F.G.N.z T jX;X=X2X5XoXI W 9.].`.`.`.'.'.$X%XdXhXU F OXi.e.0 DXDXDXDXDXDXDXDXDXDXDXDX",
"DXDXDXDXDXDXDXDXDXDXDX@ < = G <.b B.A.Z.Z.Z.N.j w.$X:X*X1X+X#X).W W ^.@X`.[.-X1XuXiXl.I.g.f w < 7 DXDXDXDXDXDXDXDXDXDXDXDXDX",
"DXDXDXDXDXDXDXDXDXDXDXDXDXO i x.v.M B.C.C.M.Z h.fX>X:X;X(.[.[.|.|.).].@X`.[.&X:XuX) L.L.L.O.6  .} 7 DXDXDXDXDXDXDXDXDXDXDXDX",
"DXDXDXDXDXDXDXDXDXDXDXDXDXO ,.hXyXh.+.#.n @.h.yX4X5X$XR.E R.'.1X1X1X+X[.[.(.=X:Xj.n.V.V.M.#.[ } 5.{ , DXDXDXDXDXDXDXDXDXDXDX",
"DXDXDXDXDXDXDXDXDXDXDXDXDX< ' 2.wXrXh.| # q yXjX;X+Xr.D !  X;X*X*X1X'.(.(.(.=X4Xl.V.Z.C.M...[ } ,.1.i 9 DXDXDXDXDXDXDXDXDXDX",
"DXDXDXDXDXDXDXDXDXDXDXDXO w 8 y 8.0.c.| @ 0 OXjX5X^.L 7.#X:X;X=X;X#X}.|.1X1X3X$Xd.B.B.B...o.} ] p :.5.g @ DXDXDXDXDXDXDXDXDX",
"DXDXDXDXDXDXDXDXDXDXDXDX< w ' y 8 8 8 t p J wXrXeXr.P OX4X*X*X*X|.J y 7.:X1X$XQ g &.&.d | } ` i w r 5.g @ DXDXDXDXDXDXDXDXDX",
"DXDXDXDXDXDXDXDXDXDXDX@ g { ` :.*.{ *.*.2.u.P K L K S Q #X1X1X2X$XU r 2.5X|.Q G ,.| ] } } >.>.>.r 1 { { + DXDXDXDXDXDXDXDXDX",
"DXDXDXDXDXDXDXDXDXDX@ i >.>.>.>.6.1.=.7.wXwX8.P K K K K P ;.I P 1.i r J 9.q.K G -.6.y.` *.>.>.>.,.r e 1 DXDXDXDXDXDXDXDXDXDX",
"DXDXDXDXDXDXDXDXDX, i 3.1.=.=.=.=.=.7.).XXXX0.q.7.t.8.8.2.` y ' ] ] } *.;.t.t.7.P 7.wXt.*.;.1.1.,.u > DXDXDXDXDXDXDXDXDXDXDX",
"DXDXDXDXDXDXDXDXO e { g ` >.t.7.7.7.).eX9X_.W W 0.0X9X0XqX6.t ` ` { ,.1.2.a.qXu.P 7.qXqX7.;.1.6.,.9 DXDXDXDXDXDXDXDXDXDXDXDX",
"DXDXDXDXDXDXDXDXDX2 > < 7 -.0X9X9X].].].XXoXq.).@X].'.XXqX2.y ` *.*.>.>.-.-.u.eX8.;.a.eXXXt.*.6.{ 9 DXDXDXDXDXDXDXDXDXDXDXDX",
"DXDXDXDXDXDXDXDXDXDXDX> r y 7.0X].`.`.`.).q.u.OX$X0XOXuXdX6.y *.>.-.;.=.-.;.W ).0Xt.;.u.eX-.' >.9 > DXDXDXDXDXDXDXDXDXDXDXDX",
"DXDXDXDXDXDXDXDXDXDX1 ] { ' ` G P ).@X`.XXu.dXyXx.I.I.I.L.@.s p ;.;.8.9X0.P P 0.qXgXt.1.;.` ' ' > DXDXDXDXDXDXDXDXDXDXDXDXDX",
"DXDXDXDXDXDXDXDXDXDX1 w w e w y 7.XXeX@XeX0XT h.I.n.D.D.C.X.o.e.0.8.).eX9X9.W 0.u.-.6.' ] ' ' ' r > DXDXDXDXDXDXDXDXDXDXDXDX",
"DXDXDXDXDXDXDXDXDXDXO O O > O p gXqXu.t.i.t.q g.L.A.G.Z.C.#.s.gXeX9XeX)..XXX9..X0.;.y ' ] ' ] ] s > DXDXDXDXDXDXDXDXDXDXDXDX",
"DXDXDXDXDXDXDXDXDXDXDXDXDXDXDXt y.i.y 8 ,.]  .%.S.G.Z.C.M.O.4.0X].`.`.9.q.XXXX].eXt.` ;.` w > > > DXDXDXDXDXDXDXDXDXDXDXDXDX",
"DXDXDXDXDXDXDXDXDXDXDXDXDXDXDX@ = = DXDXe } o...m.A.C.M.O.d.x.9X`.].XX9.-.0X#XeX0Xt.` ' ' w O DXDXDXDXDXDXDXDXDXDXDXDXDXDXDX",
"DXDXDXDXDXDXDXDXDXDXDXDXDXDXDXDXDXDXDXDXe | | o.n ......@.| 3.#X].9XP ; G z.qXdXt.] < 8 1 > DXDXDXDXDXDXDXDXDXDXDXDXDXDXDXDX",
"DXDXDXDXDXDXDXDXDXDXDXDXDXDXDXDXDXDXDXDX> w e s 5 5 6 6 f 1 G XX9XwXJ X 8 H J J y DXDXDXDXDXDXDXDXDXDXDXDXDXDXDXDXDXDXDXDXDX",
"DXDXDXDXDXDXDXDXDXDXDXDXDXDXDXDXDXDXDXDXDXO O O 2 5 6 & 1 O H qX0Xy.9 @ # @ X X DXDXDXDXDXDXDXDXDXDXDXDXDXDXDXDXDXDXDXDXDXDX",
"DXDXDXDXDXDXDXDXDXDXDXDXDXDXDXDXDXDXDXDXDXDXDXDX2 1 6 d 3 1 g y.y.9 # j j 2 DXDXDXDXDXDXDXDXDXDXDXDXDXDXDXDXDXDXDXDXDXDXDXDX",
"DXDXDXDXDXDXDXDXDXDXDXDXDXDXDXDXDXDXDXDXDXDXDXDX$ 3 z n d 4 j : : h f f f % DXDXDXDXDXDXDXDXDXDXDXDXDXDXDXDXDXDXDXDXDXDXDXDX",
"DXDXDXDXDXDXDXDXDXDXDXDXDXDXDXDXDXDXDXDXDXDXDXDX$ 4 n C x c N N N M c c v # DXDXDXDXDXDXDXDXDXDXDXDXDXDXDXDXDXDXDXDXDXDXDXDX",
"DXDXDXDXDXDXDXDXDXDXDXDXDXDXDXDXDXDXDXDXDXDXDXDX$ z ( b.B b V ( f.B z c v % DXDXDXDXDXDXDXDXDXDXDXDXDXDXDXDXDXDXDXDXDXDXDXDX",
"DXDXDXDXDXDXDXDXDXDXDXDXDXDXDXDXDXDXDXDXDXDXDXDX% b ( b.V B V n.( C b b v % DXDXDXDXDXDXDXDXDXDXDXDXDXDXDXDXDXDXDXDXDXDXDXDX",
"DXDXDXDXDXDXDXDXDXDXDXDXDXDXDXDXDXDXDXDXDXDXDXDX& b b.b.V V C n.n.b.V V b a 3 DXDXDXDXDXDXDXDXDXDXDXDXDXDXDXDXDXDXDXDXDXDXDX",
"DXDXDXDXDXDXDXDXDXDXDXDXDXDXDXDXDXDXDXDXDXDXDXDX& x ( V B C b.n.b.b.V B M m 3 DXDXDXDXDXDXDXDXDXDXDXDXDXDXDXDXDXDXDXDXDXDXDX",
"DXDXDXDXDXDXDXDXDXDXDXDXDXDXDXDXDXDXDXDXDXDXDXDX4 b f.B x V K.n.b.b.x x B M 3 3 DXDXDXDXDXDXDXDXDXDXDXDXDXDXDXDXDXDXDXDXDXDX",
"DXDXDXDXDXDXDXDXDXDXDXDXDXDXDXDXDXDXu DXDXDXDXd b $.B x z Z K.b.b.( x x V M c 3 5 DXDXDXDXDXDXDXDXDXDXDXDXDXDXDXDXDXDXDXDXDX",
"DXDXDXDXDXDXDXDXDXDXDXDXDXDXDXDXDX} 5.:.DXDXa b C g.z a a x V n.b.V c z m M M c 4 s DXDXDXDXDXDXDXDXDXDXDXDXDXDXDXDXDXDXDXDX",
"DXDXDXDXDXDXDXDXDXDXDXDXDXDXDXDXDX,.,.{ DXm x C ( n d DXDXd b b.( b 4 a c v M M c a s g ` DXDXDXDXDXDXDXDXDXDXDXDXDXDXDXDXDX",
"DXDXDXDXDXDXDXDXDXDXDXDXDXDXDXDXDXDXDXDXDXg.g.g.M a DXDXDXf b ( ( c f DXf d M @.@.c s <.5.} DXDXDXDXDXDXDXDXDXDXDXDXDXDXDXDX",
"DXDXDXDXDXDXDXDXDXDXDXDXDXDXDXDXDXDXDXDXDXDXDXDXDXDXDXDXDXDXd b $.v f DXDXDXDXDXDXDXDXDXDXDXDXDXDXDXDXDXDXDXDXDXDXDXDXDXDXDX",
"DXDXDXDXDXDXDXDXDXDXDXDXDXDXDXDXDXDXDXDXDXDXDXDXDX} :.,.DXDXDXz m f DXDXDXDXDXDXDXDXDXDXDXDXDXDXDXDXDXDXDXDXDXDXDXDXDXDXDXDX",
"DXDXDXDXDXDXDXDXDXDXDXDXDXDXDXDXDXDXDXDXDXDXDXDXDXDXDXDXDXDXDXDXDXDXDXDXDXDXDXDXDXDXDXDXDXDXDXDXDXDXDXDXDXDXDXDXDXDXDXDXDXDX",
"DXDXDXDXDXDXDXDXDXDXDXDXDXDXDXDXDXDXDXDXDXDXDXDXDXDXDXDXDXDXDXDXDXDXDXDXDXDXDXDXDXDXDXDXDXDXDXDXDXDXDXDXDXDXDXDXDXDXDXDXDXDX"
};
